# xmcd CD database generated by RipIT
#
# Track frame offsets:
# 150
# 19829
# 42990
# 64997
# 96176
# 118072
# 140581
# 171095
# 195361
# 221098
# 246252
# 259945
# 304559
#
# Disc length: 4369 seconds
#
# Revision: 1
# Processed by: cddbd v1.5.2PL0 Copyright (c) Steve Scherf et al.
# Submitted via: RipIT 3.9.0 www.suwald.com/ripit/ripit.html on 2017-04-23 at 08:26
#
DISCID=be110f0d
DTITLE=Doyle Bramhall II - Rich Man
DYEAR=2016
DGENRE=Blues
TTITLE0=Mama Can't Help You
TTITLE1=November
TTITLE2=The Veil
TTITLE3=My People
TTITLE4=New Faith
TTITLE5=Keep You Dreamin'
TTITLE6=Hands Up
TTITLE7=Rich Man
TTITLE8=Harmony
TTITLE9=Cries Of Ages
TTITLE10=Saharan Crossing
TTITLE11=The Samanas
TTITLE12=Hear My Train A Comin'
EXTD=
EXTT0=
EXTT1=
EXTT2=
EXTT3=
EXTT4=
EXTT5=
EXTT6=
EXTT7=
EXTT8=
EXTT9=
EXTT10=
EXTT11=
EXTT12=
PLAYORDER=
